# xmcd
#
# Track frame offsets: 
#        150
#        726
#        11470
#        12702
#        28902
#        31230
#        44378
#        62094
#        63474
#        77214
#
# Disc length: 1035 seconds
#
# Revision: 0
# Processed by: cddbd v1.5.2PL0 Copyright (c) Steve Scherf et al.
# Submitted via: ExactAudioCopy v0.99pb5
#
DISCID=7c04090a
DTITLE=Highlands Country - May 22, 2011 9:30
DYEAR=2011
DGENRE=Country
TTITLE0=Talking
TTITLE1=The Unclouded Day
TTITLE2=Talking
TTITLE3=The Man I Want To Be
TTITLE4=You Asked For It Promo
TTITLE5=Bill Announcements
TTITLE6=The Rock
TTITLE7=Talking
TTITLE8=I Stand Amazed
TTITLE9=Talking
EXTD=
EXTT0=
EXTT1=
EXTT2=
EXTT3=
EXTT4=
EXTT5=
EXTT6=
EXTT7=
EXTT8=
EXTT9=
PLAYORDER=
